<mxfile host="65bd71144e">
    <diagram id="SrtwKf_kQhSRglxiqIG4" name="Verify file">
        <mxGraphModel dx="2100" dy="1096" grid="1" gridSize="10" guides="1" tooltips="1" connect="1" arrows="1" fold="1" page="1" pageScale="1" pageWidth="827" pageHeight="1169" math="0" shadow="0">
            <root>
                <mxCell id="0"/>
                <mxCell id="1" parent="0"/>
                <mxCell id="OcZh6UlWSKBqzPcimYF_-85" value="Verify file" style="shape=table;html=1;whiteSpace=wrap;startSize=50;container=1;collapsible=0;childLayout=tableLayout;fillColor=none;swimlaneFillColor=none;strokeColor=none;fontSize=20;" vertex="1" parent="1">
                    <mxGeometry x="29" y="38" width="770" height="1062" as="geometry"/>
                </mxCell>
                <mxCell id="OcZh6UlWSKBqzPcimYF_-86" value="" style="shape=partialRectangle;html=1;whiteSpace=wrap;collapsible=0;dropTarget=0;pointerEvents=0;fillColor=none;top=0;left=0;bottom=0;right=0;points=[[0,0.5],[1,0.5]];portConstraint=eastwest;strokeColor=none;fontSize=20;" vertex="1" parent="OcZh6UlWSKBqzPcimYF_-85">
                    <mxGeometry y="50" width="770" height="44" as="geometry"/>
                </mxCell>
                <mxCell id="OcZh6UlWSKBqzPcimYF_-87" value="" style="shape=partialRectangle;html=1;whiteSpace=wrap;connectable=0;fillColor=none;top=1;left=1;bottom=1;right=1;overflow=hidden;strokeColor=none;fontSize=20;" vertex="1" parent="OcZh6UlWSKBqzPcimYF_-86">
                    <mxGeometry width="40" height="44" as="geometry"/>
                </mxCell>
                <mxCell id="OcZh6UlWSKBqzPcimYF_-88" value="User" style="shape=partialRectangle;html=1;whiteSpace=wrap;connectable=0;fillColor=none;top=1;left=1;bottom=1;right=1;overflow=hidden;fontSize=20;" vertex="1" parent="OcZh6UlWSKBqzPcimYF_-86">
                    <mxGeometry x="40" width="364" height="44" as="geometry"/>
                </mxCell>
                <mxCell id="OcZh6UlWSKBqzPcimYF_-89" value="System" style="shape=partialRectangle;html=1;whiteSpace=wrap;connectable=0;fillColor=none;top=1;left=1;bottom=1;right=1;overflow=hidden;fontSize=20;" vertex="1" parent="OcZh6UlWSKBqzPcimYF_-86">
                    <mxGeometry x="404" width="366" height="44" as="geometry"/>
                </mxCell>
                <mxCell id="OcZh6UlWSKBqzPcimYF_-90" value="" style="shape=partialRectangle;html=1;whiteSpace=wrap;collapsible=0;dropTarget=0;pointerEvents=0;fillColor=none;top=1;left=1;bottom=1;right=1;points=[[0,0.5],[1,0.5]];portConstraint=eastwest;fontSize=20;" vertex="1" parent="OcZh6UlWSKBqzPcimYF_-85">
                    <mxGeometry y="94" width="770" height="968" as="geometry"/>
                </mxCell>
                <mxCell id="OcZh6UlWSKBqzPcimYF_-91" value="" style="shape=partialRectangle;html=1;whiteSpace=wrap;connectable=0;fillColor=none;top=1;left=1;bottom=1;right=1;overflow=hidden;horizontal=0;fontSize=20;" vertex="1" parent="OcZh6UlWSKBqzPcimYF_-90">
                    <mxGeometry width="40" height="968" as="geometry"/>
                </mxCell>
                <mxCell id="OcZh6UlWSKBqzPcimYF_-92" value="" style="shape=partialRectangle;html=1;whiteSpace=wrap;connectable=0;fillColor=none;top=1;left=1;bottom=1;right=1;overflow=hidden;fontSize=20;" vertex="1" parent="OcZh6UlWSKBqzPcimYF_-90">
                    <mxGeometry x="40" width="364" height="968" as="geometry"/>
                </mxCell>
                <mxCell id="OcZh6UlWSKBqzPcimYF_-93" value="" style="shape=partialRectangle;html=1;whiteSpace=wrap;connectable=0;fillColor=none;top=1;left=1;bottom=1;right=1;overflow=hidden;fontSize=20;" vertex="1" parent="OcZh6UlWSKBqzPcimYF_-90">
                    <mxGeometry x="404" width="366" height="968" as="geometry"/>
                </mxCell>
                <mxCell id="OcZh6UlWSKBqzPcimYF_-94" style="edgeStyle=orthogonalEdgeStyle;html=1;fontSize=20;" edge="1" parent="1" source="OcZh6UlWSKBqzPcimYF_-95" target="OcZh6UlWSKBqzPcimYF_-97">
                    <mxGeometry relative="1" as="geometry"/>
                </mxCell>
                <mxCell id="OcZh6UlWSKBqzPcimYF_-95" value="Select Verify" style="html=1;align=center;verticalAlign=middle;rounded=1;absoluteArcSize=1;arcSize=10;dashed=0;fontSize=20;" vertex="1" parent="1">
                    <mxGeometry x="135.07" y="218" width="235.87" height="40" as="geometry"/>
                </mxCell>
                <mxCell id="OcZh6UlWSKBqzPcimYF_-96" style="edgeStyle=orthogonalEdgeStyle;html=1;fontSize=20;" edge="1" parent="1" source="OcZh6UlWSKBqzPcimYF_-97" target="OcZh6UlWSKBqzPcimYF_-99">
                    <mxGeometry relative="1" as="geometry"/>
                </mxCell>
                <mxCell id="OcZh6UlWSKBqzPcimYF_-97" value="Load Digest switch" style="html=1;align=center;verticalAlign=middle;rounded=1;absoluteArcSize=1;arcSize=10;dashed=0;fontSize=20;" vertex="1" parent="1">
                    <mxGeometry x="473.5" y="268" width="280" height="40" as="geometry"/>
                </mxCell>
                <mxCell id="OcZh6UlWSKBqzPcimYF_-98" style="edgeStyle=orthogonalEdgeStyle;html=1;" edge="1" parent="1" source="OcZh6UlWSKBqzPcimYF_-99" target="OcZh6UlWSKBqzPcimYF_-114">
                    <mxGeometry relative="1" as="geometry"/>
                </mxCell>
                <mxCell id="OcZh6UlWSKBqzPcimYF_-99" value="Toggle off" style="html=1;align=center;verticalAlign=middle;rounded=1;absoluteArcSize=1;arcSize=10;dashed=0;fontSize=20;" vertex="1" parent="1">
                    <mxGeometry x="170.07999999999998" y="318" width="165.87" height="40" as="geometry"/>
                </mxCell>
                <mxCell id="OcZh6UlWSKBqzPcimYF_-100" style="edgeStyle=orthogonalEdgeStyle;html=1;" edge="1" parent="1" source="OcZh6UlWSKBqzPcimYF_-101" target="OcZh6UlWSKBqzPcimYF_-103">
                    <mxGeometry relative="1" as="geometry"/>
                </mxCell>
                <mxCell id="OcZh6UlWSKBqzPcimYF_-101" value="Load signature file input button" style="html=1;align=center;verticalAlign=middle;rounded=1;absoluteArcSize=1;arcSize=10;dashed=0;fontSize=20;" vertex="1" parent="1">
                    <mxGeometry x="459.44" y="468" width="309.76" height="40" as="geometry"/>
                </mxCell>
                <mxCell id="OcZh6UlWSKBqzPcimYF_-102" style="edgeStyle=orthogonalEdgeStyle;html=1;fontSize=20;" edge="1" parent="1" source="OcZh6UlWSKBqzPcimYF_-103" target="OcZh6UlWSKBqzPcimYF_-105">
                    <mxGeometry relative="1" as="geometry"/>
                </mxCell>
                <mxCell id="OcZh6UlWSKBqzPcimYF_-103" value="Select signature file" style="html=1;align=center;verticalAlign=middle;rounded=1;absoluteArcSize=1;arcSize=10;dashed=0;fontSize=20;" vertex="1" parent="1">
                    <mxGeometry x="131.01999999999998" y="518" width="239.93" height="40" as="geometry"/>
                </mxCell>
                <mxCell id="OcZh6UlWSKBqzPcimYF_-104" style="edgeStyle=orthogonalEdgeStyle;html=1;fontSize=20;" edge="1" parent="1" source="OcZh6UlWSKBqzPcimYF_-105" target="OcZh6UlWSKBqzPcimYF_-107">
                    <mxGeometry relative="1" as="geometry"/>
                </mxCell>
                <mxCell id="OcZh6UlWSKBqzPcimYF_-105" value="Load original file input button" style="html=1;align=center;verticalAlign=middle;rounded=1;absoluteArcSize=1;arcSize=10;dashed=0;fontSize=20;" vertex="1" parent="1">
                    <mxGeometry x="467.23" y="572.5" width="294.18" height="40" as="geometry"/>
                </mxCell>
                <mxCell id="n5Zza1soFFeWwcublNhu-5" style="edgeStyle=orthogonalEdgeStyle;html=1;" edge="1" parent="1" source="OcZh6UlWSKBqzPcimYF_-107" target="n5Zza1soFFeWwcublNhu-1">
                    <mxGeometry relative="1" as="geometry"/>
                </mxCell>
                <mxCell id="OcZh6UlWSKBqzPcimYF_-107" value="Select original file to verify" style="html=1;align=center;verticalAlign=middle;rounded=1;absoluteArcSize=1;arcSize=10;dashed=0;fontSize=20;" vertex="1" parent="1">
                    <mxGeometry x="110.46" y="628" width="281.05" height="40" as="geometry"/>
                </mxCell>
                <mxCell id="OcZh6UlWSKBqzPcimYF_-108" style="edgeStyle=orthogonalEdgeStyle;html=1;fontSize=20;" edge="1" parent="1" source="OcZh6UlWSKBqzPcimYF_-122" target="OcZh6UlWSKBqzPcimYF_-112">
                    <mxGeometry relative="1" as="geometry">
                        <mxPoint x="253" y="788" as="targetPoint"/>
                        <mxPoint x="254.48275862068965" y="1018" as="sourcePoint"/>
                    </mxGeometry>
                </mxCell>
                <mxCell id="OcZh6UlWSKBqzPcimYF_-110" style="edgeStyle=orthogonalEdgeStyle;html=1;fontSize=20;" edge="1" parent="1" source="OcZh6UlWSKBqzPcimYF_-111" target="OcZh6UlWSKBqzPcimYF_-95">
                    <mxGeometry relative="1" as="geometry"/>
                </mxCell>
                <mxCell id="OcZh6UlWSKBqzPcimYF_-111" value="" style="ellipse;fillColor=#000000;strokeColor=none;fontSize=20;" vertex="1" parent="1">
                    <mxGeometry x="238" y="158" width="30" height="30" as="geometry"/>
                </mxCell>
                <mxCell id="OcZh6UlWSKBqzPcimYF_-112" value="" style="ellipse;html=1;shape=endState;fillColor=#000000;strokeColor=#000000;fontSize=20;" vertex="1" parent="1">
                    <mxGeometry x="599.3199999999999" y="1054" width="30" height="30" as="geometry"/>
                </mxCell>
                <mxCell id="OcZh6UlWSKBqzPcimYF_-113" style="edgeStyle=orthogonalEdgeStyle;html=1;" edge="1" parent="1" source="OcZh6UlWSKBqzPcimYF_-114" target="OcZh6UlWSKBqzPcimYF_-116">
                    <mxGeometry relative="1" as="geometry"/>
                </mxCell>
                <mxCell id="OcZh6UlWSKBqzPcimYF_-114" value="Load Public Key file input button" style="html=1;align=center;verticalAlign=middle;rounded=1;absoluteArcSize=1;arcSize=10;dashed=0;fontSize=20;" vertex="1" parent="1">
                    <mxGeometry x="451.63" y="368" width="325.37" height="40" as="geometry"/>
                </mxCell>
                <mxCell id="OcZh6UlWSKBqzPcimYF_-115" style="edgeStyle=orthogonalEdgeStyle;html=1;" edge="1" parent="1" source="OcZh6UlWSKBqzPcimYF_-116" target="OcZh6UlWSKBqzPcimYF_-101">
                    <mxGeometry relative="1" as="geometry"/>
                </mxCell>
                <mxCell id="OcZh6UlWSKBqzPcimYF_-116" value="Select public key file" style="html=1;align=center;verticalAlign=middle;rounded=1;absoluteArcSize=1;arcSize=10;dashed=0;fontSize=20;" vertex="1" parent="1">
                    <mxGeometry x="135.07999999999998" y="418" width="235.87" height="40" as="geometry"/>
                </mxCell>
                <mxCell id="OcZh6UlWSKBqzPcimYF_-117" style="edgeStyle=orthogonalEdgeStyle;html=1;" edge="1" parent="1" source="OcZh6UlWSKBqzPcimYF_-118" target="OcZh6UlWSKBqzPcimYF_-120">
                    <mxGeometry relative="1" as="geometry"/>
                </mxCell>
                <mxCell id="OcZh6UlWSKBqzPcimYF_-118" value="Show Verify button" style="html=1;align=center;verticalAlign=middle;rounded=1;absoluteArcSize=1;arcSize=10;dashed=0;fontSize=20;" vertex="1" parent="1">
                    <mxGeometry x="502.90000000000003" y="794" width="221.2" height="40" as="geometry"/>
                </mxCell>
                <mxCell id="OcZh6UlWSKBqzPcimYF_-119" style="edgeStyle=orthogonalEdgeStyle;html=1;" edge="1" parent="1" source="OcZh6UlWSKBqzPcimYF_-120" target="OcZh6UlWSKBqzPcimYF_-126">
                    <mxGeometry relative="1" as="geometry"/>
                </mxCell>
                <mxCell id="OcZh6UlWSKBqzPcimYF_-120" value="Click Verify button" style="html=1;align=center;verticalAlign=middle;rounded=1;absoluteArcSize=1;arcSize=10;dashed=0;fontSize=20;" vertex="1" parent="1">
                    <mxGeometry x="154.21999999999997" y="844" width="196.12" height="40" as="geometry"/>
                </mxCell>
                <mxCell id="OcZh6UlWSKBqzPcimYF_-122" value="Show verification result" style="html=1;align=center;verticalAlign=middle;rounded=1;absoluteArcSize=1;arcSize=10;dashed=0;fontSize=20;" vertex="1" parent="1">
                    <mxGeometry x="461.63" y="974" width="303.74" height="40" as="geometry"/>
                </mxCell>
                <mxCell id="OcZh6UlWSKBqzPcimYF_-123" style="edgeStyle=orthogonalEdgeStyle;html=1;" edge="1" parent="1" target="OcZh6UlWSKBqzPcimYF_-109">
                    <mxGeometry relative="1" as="geometry">
                        <mxPoint x="254.48275862068965" y="920" as="sourcePoint"/>
                    </mxGeometry>
                </mxCell>
                <mxCell id="OcZh6UlWSKBqzPcimYF_-125" style="edgeStyle=orthogonalEdgeStyle;html=1;" edge="1" parent="1" source="OcZh6UlWSKBqzPcimYF_-126" target="OcZh6UlWSKBqzPcimYF_-122">
                    <mxGeometry relative="1" as="geometry"/>
                </mxCell>
                <mxCell id="OcZh6UlWSKBqzPcimYF_-126" value="Verify file" style="html=1;align=center;verticalAlign=middle;rounded=1;absoluteArcSize=1;arcSize=10;dashed=0;fontSize=20;" vertex="1" parent="1">
                    <mxGeometry x="546.23" y="904" width="134.54" height="40" as="geometry"/>
                </mxCell>
                <mxCell id="n5Zza1soFFeWwcublNhu-4" style="edgeStyle=orthogonalEdgeStyle;html=1;" edge="1" parent="1" source="n5Zza1soFFeWwcublNhu-1" target="n5Zza1soFFeWwcublNhu-2">
                    <mxGeometry relative="1" as="geometry"/>
                </mxCell>
                <mxCell id="n5Zza1soFFeWwcublNhu-1" value="Load hash options" style="html=1;align=center;verticalAlign=middle;rounded=1;absoluteArcSize=1;arcSize=10;dashed=0;fontSize=20;" vertex="1" parent="1">
                    <mxGeometry x="496.22" y="682" width="236.2" height="40" as="geometry"/>
                </mxCell>
                <mxCell id="n5Zza1soFFeWwcublNhu-3" style="edgeStyle=orthogonalEdgeStyle;html=1;" edge="1" parent="1" source="n5Zza1soFFeWwcublNhu-2" target="OcZh6UlWSKBqzPcimYF_-118">
                    <mxGeometry relative="1" as="geometry"/>
                </mxCell>
                <mxCell id="n5Zza1soFFeWwcublNhu-2" value="Select hash option" style="html=1;align=center;verticalAlign=middle;rounded=1;absoluteArcSize=1;arcSize=10;dashed=0;fontSize=20;" vertex="1" parent="1">
                    <mxGeometry x="132.89000000000004" y="740" width="236.2" height="40" as="geometry"/>
                </mxCell>
            </root>
        </mxGraphModel>
    </diagram>
    <diagram id="zeR0jdcg8lgoKeKb3CZN" name="Verify digest">
        <mxGraphModel dx="875" dy="457" grid="1" gridSize="10" guides="1" tooltips="1" connect="1" arrows="1" fold="1" page="1" pageScale="1" pageWidth="827" pageHeight="1169" math="0" shadow="0">
            <root>
                <mxCell id="DwrVtQbkutBQ-EE_YVlU-0"/>
                <mxCell id="DwrVtQbkutBQ-EE_YVlU-1" parent="DwrVtQbkutBQ-EE_YVlU-0"/>
                <mxCell id="i8QMMAjTq-P_-1yUuMx7-0" value="Verify digest" style="shape=table;html=1;whiteSpace=wrap;startSize=50;container=1;collapsible=0;childLayout=tableLayout;fillColor=none;swimlaneFillColor=none;strokeColor=none;fontSize=20;" vertex="1" parent="DwrVtQbkutBQ-EE_YVlU-1">
                    <mxGeometry x="29" y="38" width="770" height="1062" as="geometry"/>
                </mxCell>
                <mxCell id="i8QMMAjTq-P_-1yUuMx7-1" value="" style="shape=partialRectangle;html=1;whiteSpace=wrap;collapsible=0;dropTarget=0;pointerEvents=0;fillColor=none;top=0;left=0;bottom=0;right=0;points=[[0,0.5],[1,0.5]];portConstraint=eastwest;strokeColor=none;fontSize=20;" vertex="1" parent="i8QMMAjTq-P_-1yUuMx7-0">
                    <mxGeometry y="50" width="770" height="44" as="geometry"/>
                </mxCell>
                <mxCell id="i8QMMAjTq-P_-1yUuMx7-2" value="" style="shape=partialRectangle;html=1;whiteSpace=wrap;connectable=0;fillColor=none;top=1;left=1;bottom=1;right=1;overflow=hidden;strokeColor=none;fontSize=20;" vertex="1" parent="i8QMMAjTq-P_-1yUuMx7-1">
                    <mxGeometry width="40" height="44" as="geometry"/>
                </mxCell>
                <mxCell id="i8QMMAjTq-P_-1yUuMx7-3" value="User" style="shape=partialRectangle;html=1;whiteSpace=wrap;connectable=0;fillColor=none;top=1;left=1;bottom=1;right=1;overflow=hidden;fontSize=20;" vertex="1" parent="i8QMMAjTq-P_-1yUuMx7-1">
                    <mxGeometry x="40" width="364" height="44" as="geometry"/>
                </mxCell>
                <mxCell id="i8QMMAjTq-P_-1yUuMx7-4" value="System" style="shape=partialRectangle;html=1;whiteSpace=wrap;connectable=0;fillColor=none;top=1;left=1;bottom=1;right=1;overflow=hidden;fontSize=20;" vertex="1" parent="i8QMMAjTq-P_-1yUuMx7-1">
                    <mxGeometry x="404" width="366" height="44" as="geometry"/>
                </mxCell>
                <mxCell id="i8QMMAjTq-P_-1yUuMx7-5" value="" style="shape=partialRectangle;html=1;whiteSpace=wrap;collapsible=0;dropTarget=0;pointerEvents=0;fillColor=none;top=1;left=1;bottom=1;right=1;points=[[0,0.5],[1,0.5]];portConstraint=eastwest;fontSize=20;" vertex="1" parent="i8QMMAjTq-P_-1yUuMx7-0">
                    <mxGeometry y="94" width="770" height="968" as="geometry"/>
                </mxCell>
                <mxCell id="i8QMMAjTq-P_-1yUuMx7-6" value="" style="shape=partialRectangle;html=1;whiteSpace=wrap;connectable=0;fillColor=none;top=1;left=1;bottom=1;right=1;overflow=hidden;horizontal=0;fontSize=20;" vertex="1" parent="i8QMMAjTq-P_-1yUuMx7-5">
                    <mxGeometry width="40" height="968" as="geometry"/>
                </mxCell>
                <mxCell id="i8QMMAjTq-P_-1yUuMx7-7" value="" style="shape=partialRectangle;html=1;whiteSpace=wrap;connectable=0;fillColor=none;top=1;left=1;bottom=1;right=1;overflow=hidden;fontSize=20;" vertex="1" parent="i8QMMAjTq-P_-1yUuMx7-5">
                    <mxGeometry x="40" width="364" height="968" as="geometry"/>
                </mxCell>
                <mxCell id="i8QMMAjTq-P_-1yUuMx7-8" value="" style="shape=partialRectangle;html=1;whiteSpace=wrap;connectable=0;fillColor=none;top=1;left=1;bottom=1;right=1;overflow=hidden;fontSize=20;" vertex="1" parent="i8QMMAjTq-P_-1yUuMx7-5">
                    <mxGeometry x="404" width="366" height="968" as="geometry"/>
                </mxCell>
                <mxCell id="i8QMMAjTq-P_-1yUuMx7-9" style="edgeStyle=orthogonalEdgeStyle;html=1;fontSize=20;" edge="1" parent="DwrVtQbkutBQ-EE_YVlU-1" source="i8QMMAjTq-P_-1yUuMx7-10" target="i8QMMAjTq-P_-1yUuMx7-12">
                    <mxGeometry relative="1" as="geometry"/>
                </mxCell>
                <mxCell id="i8QMMAjTq-P_-1yUuMx7-10" value="Select Verify" style="html=1;align=center;verticalAlign=middle;rounded=1;absoluteArcSize=1;arcSize=10;dashed=0;fontSize=20;" vertex="1" parent="DwrVtQbkutBQ-EE_YVlU-1">
                    <mxGeometry x="135.07" y="218" width="235.87" height="40" as="geometry"/>
                </mxCell>
                <mxCell id="i8QMMAjTq-P_-1yUuMx7-11" style="edgeStyle=orthogonalEdgeStyle;html=1;fontSize=20;" edge="1" parent="DwrVtQbkutBQ-EE_YVlU-1" source="i8QMMAjTq-P_-1yUuMx7-12" target="i8QMMAjTq-P_-1yUuMx7-14">
                    <mxGeometry relative="1" as="geometry"/>
                </mxCell>
                <mxCell id="i8QMMAjTq-P_-1yUuMx7-12" value="Load Digest switch" style="html=1;align=center;verticalAlign=middle;rounded=1;absoluteArcSize=1;arcSize=10;dashed=0;fontSize=20;" vertex="1" parent="DwrVtQbkutBQ-EE_YVlU-1">
                    <mxGeometry x="473.5" y="268" width="280" height="40" as="geometry"/>
                </mxCell>
                <mxCell id="i8QMMAjTq-P_-1yUuMx7-13" style="edgeStyle=orthogonalEdgeStyle;html=1;" edge="1" parent="DwrVtQbkutBQ-EE_YVlU-1" source="i8QMMAjTq-P_-1yUuMx7-14" target="i8QMMAjTq-P_-1yUuMx7-28">
                    <mxGeometry relative="1" as="geometry"/>
                </mxCell>
                <mxCell id="i8QMMAjTq-P_-1yUuMx7-14" value="Toggle on" style="html=1;align=center;verticalAlign=middle;rounded=1;absoluteArcSize=1;arcSize=10;dashed=0;fontSize=20;" vertex="1" parent="DwrVtQbkutBQ-EE_YVlU-1">
                    <mxGeometry x="170.07999999999998" y="318" width="165.87" height="40" as="geometry"/>
                </mxCell>
                <mxCell id="i8QMMAjTq-P_-1yUuMx7-15" style="edgeStyle=orthogonalEdgeStyle;html=1;" edge="1" parent="DwrVtQbkutBQ-EE_YVlU-1" source="i8QMMAjTq-P_-1yUuMx7-16" target="i8QMMAjTq-P_-1yUuMx7-18">
                    <mxGeometry relative="1" as="geometry"/>
                </mxCell>
                <mxCell id="i8QMMAjTq-P_-1yUuMx7-16" value="Load signature file input button" style="html=1;align=center;verticalAlign=middle;rounded=1;absoluteArcSize=1;arcSize=10;dashed=0;fontSize=20;" vertex="1" parent="DwrVtQbkutBQ-EE_YVlU-1">
                    <mxGeometry x="459.44" y="468" width="309.76" height="40" as="geometry"/>
                </mxCell>
                <mxCell id="i8QMMAjTq-P_-1yUuMx7-17" style="edgeStyle=orthogonalEdgeStyle;html=1;fontSize=20;" edge="1" parent="DwrVtQbkutBQ-EE_YVlU-1" source="i8QMMAjTq-P_-1yUuMx7-18" target="i8QMMAjTq-P_-1yUuMx7-20">
                    <mxGeometry relative="1" as="geometry"/>
                </mxCell>
                <mxCell id="i8QMMAjTq-P_-1yUuMx7-18" value="Select signature file" style="html=1;align=center;verticalAlign=middle;rounded=1;absoluteArcSize=1;arcSize=10;dashed=0;fontSize=20;" vertex="1" parent="DwrVtQbkutBQ-EE_YVlU-1">
                    <mxGeometry x="131.01999999999998" y="518" width="239.93" height="40" as="geometry"/>
                </mxCell>
                <mxCell id="i8QMMAjTq-P_-1yUuMx7-19" style="edgeStyle=orthogonalEdgeStyle;html=1;fontSize=20;" edge="1" parent="DwrVtQbkutBQ-EE_YVlU-1" source="i8QMMAjTq-P_-1yUuMx7-20" target="i8QMMAjTq-P_-1yUuMx7-22">
                    <mxGeometry relative="1" as="geometry"/>
                </mxCell>
                <mxCell id="i8QMMAjTq-P_-1yUuMx7-20" value="Load digest file input button" style="html=1;align=center;verticalAlign=middle;rounded=1;absoluteArcSize=1;arcSize=10;dashed=0;fontSize=20;" vertex="1" parent="DwrVtQbkutBQ-EE_YVlU-1">
                    <mxGeometry x="467.23" y="572.5" width="294.18" height="40" as="geometry"/>
                </mxCell>
                <mxCell id="i8QMMAjTq-P_-1yUuMx7-21" style="edgeStyle=orthogonalEdgeStyle;html=1;" edge="1" parent="DwrVtQbkutBQ-EE_YVlU-1" source="i8QMMAjTq-P_-1yUuMx7-22" target="i8QMMAjTq-P_-1yUuMx7-39">
                    <mxGeometry relative="1" as="geometry"/>
                </mxCell>
                <mxCell id="i8QMMAjTq-P_-1yUuMx7-22" value="Select digest file to verify" style="html=1;align=center;verticalAlign=middle;rounded=1;absoluteArcSize=1;arcSize=10;dashed=0;fontSize=20;" vertex="1" parent="DwrVtQbkutBQ-EE_YVlU-1">
                    <mxGeometry x="110.46" y="628" width="281.05" height="40" as="geometry"/>
                </mxCell>
                <mxCell id="i8QMMAjTq-P_-1yUuMx7-23" style="edgeStyle=orthogonalEdgeStyle;html=1;fontSize=20;" edge="1" parent="DwrVtQbkutBQ-EE_YVlU-1" source="i8QMMAjTq-P_-1yUuMx7-35" target="i8QMMAjTq-P_-1yUuMx7-26">
                    <mxGeometry relative="1" as="geometry">
                        <mxPoint x="253" y="788" as="targetPoint"/>
                        <mxPoint x="254.48275862068965" y="1018" as="sourcePoint"/>
                    </mxGeometry>
                </mxCell>
                <mxCell id="i8QMMAjTq-P_-1yUuMx7-24" style="edgeStyle=orthogonalEdgeStyle;html=1;fontSize=20;" edge="1" parent="DwrVtQbkutBQ-EE_YVlU-1" source="i8QMMAjTq-P_-1yUuMx7-25" target="i8QMMAjTq-P_-1yUuMx7-10">
                    <mxGeometry relative="1" as="geometry"/>
                </mxCell>
                <mxCell id="i8QMMAjTq-P_-1yUuMx7-25" value="" style="ellipse;fillColor=#000000;strokeColor=none;fontSize=20;" vertex="1" parent="DwrVtQbkutBQ-EE_YVlU-1">
                    <mxGeometry x="238" y="158" width="30" height="30" as="geometry"/>
                </mxCell>
                <mxCell id="i8QMMAjTq-P_-1yUuMx7-26" value="" style="ellipse;html=1;shape=endState;fillColor=#000000;strokeColor=#000000;fontSize=20;" vertex="1" parent="DwrVtQbkutBQ-EE_YVlU-1">
                    <mxGeometry x="599.3199999999999" y="1054" width="30" height="30" as="geometry"/>
                </mxCell>
                <mxCell id="i8QMMAjTq-P_-1yUuMx7-27" style="edgeStyle=orthogonalEdgeStyle;html=1;" edge="1" parent="DwrVtQbkutBQ-EE_YVlU-1" source="i8QMMAjTq-P_-1yUuMx7-28" target="i8QMMAjTq-P_-1yUuMx7-30">
                    <mxGeometry relative="1" as="geometry"/>
                </mxCell>
                <mxCell id="i8QMMAjTq-P_-1yUuMx7-28" value="Load Public Key file input button" style="html=1;align=center;verticalAlign=middle;rounded=1;absoluteArcSize=1;arcSize=10;dashed=0;fontSize=20;" vertex="1" parent="DwrVtQbkutBQ-EE_YVlU-1">
                    <mxGeometry x="451.63" y="368" width="325.37" height="40" as="geometry"/>
                </mxCell>
                <mxCell id="i8QMMAjTq-P_-1yUuMx7-29" style="edgeStyle=orthogonalEdgeStyle;html=1;" edge="1" parent="DwrVtQbkutBQ-EE_YVlU-1" source="i8QMMAjTq-P_-1yUuMx7-30" target="i8QMMAjTq-P_-1yUuMx7-16">
                    <mxGeometry relative="1" as="geometry"/>
                </mxCell>
                <mxCell id="i8QMMAjTq-P_-1yUuMx7-30" value="Select public key file" style="html=1;align=center;verticalAlign=middle;rounded=1;absoluteArcSize=1;arcSize=10;dashed=0;fontSize=20;" vertex="1" parent="DwrVtQbkutBQ-EE_YVlU-1">
                    <mxGeometry x="135.07999999999998" y="418" width="235.87" height="40" as="geometry"/>
                </mxCell>
                <mxCell id="i8QMMAjTq-P_-1yUuMx7-31" style="edgeStyle=orthogonalEdgeStyle;html=1;" edge="1" parent="DwrVtQbkutBQ-EE_YVlU-1" source="i8QMMAjTq-P_-1yUuMx7-32" target="i8QMMAjTq-P_-1yUuMx7-34">
                    <mxGeometry relative="1" as="geometry"/>
                </mxCell>
                <mxCell id="i8QMMAjTq-P_-1yUuMx7-32" value="Show Verify button" style="html=1;align=center;verticalAlign=middle;rounded=1;absoluteArcSize=1;arcSize=10;dashed=0;fontSize=20;" vertex="1" parent="DwrVtQbkutBQ-EE_YVlU-1">
                    <mxGeometry x="502.90000000000003" y="794" width="221.2" height="40" as="geometry"/>
                </mxCell>
                <mxCell id="i8QMMAjTq-P_-1yUuMx7-33" style="edgeStyle=orthogonalEdgeStyle;html=1;" edge="1" parent="DwrVtQbkutBQ-EE_YVlU-1" source="i8QMMAjTq-P_-1yUuMx7-34" target="i8QMMAjTq-P_-1yUuMx7-37">
                    <mxGeometry relative="1" as="geometry"/>
                </mxCell>
                <mxCell id="i8QMMAjTq-P_-1yUuMx7-34" value="Click Verify button" style="html=1;align=center;verticalAlign=middle;rounded=1;absoluteArcSize=1;arcSize=10;dashed=0;fontSize=20;" vertex="1" parent="DwrVtQbkutBQ-EE_YVlU-1">
                    <mxGeometry x="154.21999999999997" y="844" width="196.12" height="40" as="geometry"/>
                </mxCell>
                <mxCell id="i8QMMAjTq-P_-1yUuMx7-35" value="Show verification result" style="html=1;align=center;verticalAlign=middle;rounded=1;absoluteArcSize=1;arcSize=10;dashed=0;fontSize=20;" vertex="1" parent="DwrVtQbkutBQ-EE_YVlU-1">
                    <mxGeometry x="461.63" y="974" width="303.74" height="40" as="geometry"/>
                </mxCell>
                <mxCell id="i8QMMAjTq-P_-1yUuMx7-36" style="edgeStyle=orthogonalEdgeStyle;html=1;" edge="1" parent="DwrVtQbkutBQ-EE_YVlU-1" source="i8QMMAjTq-P_-1yUuMx7-37" target="i8QMMAjTq-P_-1yUuMx7-35">
                    <mxGeometry relative="1" as="geometry"/>
                </mxCell>
                <mxCell id="i8QMMAjTq-P_-1yUuMx7-37" value="Verify file" style="html=1;align=center;verticalAlign=middle;rounded=1;absoluteArcSize=1;arcSize=10;dashed=0;fontSize=20;" vertex="1" parent="DwrVtQbkutBQ-EE_YVlU-1">
                    <mxGeometry x="546.23" y="904" width="134.54" height="40" as="geometry"/>
                </mxCell>
                <mxCell id="i8QMMAjTq-P_-1yUuMx7-38" style="edgeStyle=orthogonalEdgeStyle;html=1;" edge="1" parent="DwrVtQbkutBQ-EE_YVlU-1" source="i8QMMAjTq-P_-1yUuMx7-39" target="i8QMMAjTq-P_-1yUuMx7-41">
                    <mxGeometry relative="1" as="geometry"/>
                </mxCell>
                <mxCell id="i8QMMAjTq-P_-1yUuMx7-39" value="Load hash options" style="html=1;align=center;verticalAlign=middle;rounded=1;absoluteArcSize=1;arcSize=10;dashed=0;fontSize=20;" vertex="1" parent="DwrVtQbkutBQ-EE_YVlU-1">
                    <mxGeometry x="496.22" y="682" width="236.2" height="40" as="geometry"/>
                </mxCell>
                <mxCell id="i8QMMAjTq-P_-1yUuMx7-40" style="edgeStyle=orthogonalEdgeStyle;html=1;" edge="1" parent="DwrVtQbkutBQ-EE_YVlU-1" source="i8QMMAjTq-P_-1yUuMx7-41" target="i8QMMAjTq-P_-1yUuMx7-32">
                    <mxGeometry relative="1" as="geometry"/>
                </mxCell>
                <mxCell id="i8QMMAjTq-P_-1yUuMx7-41" value="Select hash option" style="html=1;align=center;verticalAlign=middle;rounded=1;absoluteArcSize=1;arcSize=10;dashed=0;fontSize=20;" vertex="1" parent="DwrVtQbkutBQ-EE_YVlU-1">
                    <mxGeometry x="132.89000000000004" y="740" width="236.2" height="40" as="geometry"/>
                </mxCell>
            </root>
        </mxGraphModel>
    </diagram>
</mxfile>